<svg xmlns="http://www.w3.org/2000/svg" viewBox="0 0 154 48" id="lewagon-logo" role="img"><title id="lewagon-logo-title">Le Wagon Coding Bootcamp logo</title><g fill="none" fill-rule="nonzero"><ellipse cx="24.026" cy="24" fill="#FD1015" rx="24.026" ry="24"/><path fill="#FFF" d="M11.298 30.115a.29.29 0 01-.298.246h-.868a.29.29 0 01-.29-.289v-.578c0-.16.13-.29.29-.29v-3.758c0-.16.13-.29.29-.29h22.292c1.547 0 2.936.675 3.89 1.745.072.08.162.193.271.338a.58.58 0 00.463.23h1.164c.319.002.577.26.577.58v1.734c0 .32-.26.578-.579.578h-2.038a.29.29 0 01-.29-.289 3.473 3.473 0 00-3.461-3.18 3.472 3.472 0 00-3.462 3.18.29.29 0 01-.302.29h-10.42a.29.29 0 01-.29-.29h-.012a3.472 3.472 0 00-3.462-3.18 3.472 3.472 0 00-3.462 3.18v.002a3.491 3.491 0 00-.003.04zm27.202-4.09c0 .159-.13.288-.29.288h-.455a.29.29 0 01-.216-.097 8.23 8.23 0 00-.45-.477A6.347 6.347 0 0032.713 24H10.42a.29.29 0 01-.29-.29v-6.726c0-1.298.958-2.397 2.244-2.577 3.887-.545 7.546-.817 10.977-.817 6.127 0 8.509.487 10.806 1.735 1.399.76 2.727 2.595 3.986 5.505.235.543.356 1.129.356 1.72v3.474zm-28.368-1.736v.578-.578zm1.736-7.518a.29.29 0 00-.29.29v4.337c0 .16.13.289.29.289h4.343c.16 0 .289-.13.289-.29V17.06a.29.29 0 00-.29-.289h-4.342zm12.158 0a.29.29 0 00-.29.29v4.337c0 .16.13.289.29.289h4.342c.16 0 .29-.13.29-.29V17.06a.29.29 0 00-.29-.289h-4.342zm-6.079 0a.29.29 0 00-.29.29v4.337c0 .16.13.289.29.289h4.342c.16 0 .29-.13.29-.29V17.06a.29.29 0 00-.29-.289h-4.342zm12.158 0a.29.29 0 00-.29.29v4.337c0 .16.13.289.29.289h6.676a.29.29 0 00.27-.393 14.558 14.558 0 00-1.1-2.277 5.28 5.28 0 01-.173-.31 3.561 3.561 0 00-3.17-1.936h-2.503zM14.763 32.675a2.315 2.315 0 01-2.316-2.314 2.315 2.315 0 012.316-2.313 2.315 2.315 0 012.316 2.313 2.315 2.315 0 01-2.316 2.314zm0-1.157a1.157 1.157 0 10.001-2.314 1.157 1.157 0 000 2.314zm17.948 1.157a2.315 2.315 0 01-2.316-2.314 2.315 2.315 0 012.316-2.313 2.315 2.315 0 012.315 2.313 2.315 2.315 0 01-2.315 2.314zm0-1.157a1.157 1.157 0 100-2.314 1.157 1.157 0 000 2.314zM63.107 23.106H69.4a3.452 3.452 0 00-6.293 0zm9.501 2.64a.406.406 0 01-.352.202h-9.149a3.452 3.452 0 004.976 1.506c.118-.073.267-.189.447-.346a.61.61 0 01.523-.137l2.381.49a.406.406 0 01.26.616 6.528 6.528 0 01-2.378 2.18 6.497 6.497 0 11-3.063-12.226 6.497 6.497 0 016.384 7.714h-.029zm-17.319 4.45v-16.88c0-.2.141-.372.337-.412l2.203-.452a.421.421 0 01.506.412v17.332a.42.42 0 01-.42.421H55.71a.42.42 0 01-.422-.42zm30.266.421H83.11a.421.421 0 01-.399-.285L78.83 18.994a.42.42 0 01.398-.556h2.156c.18 0 .34.114.398.284l2.351 6.866a.21.21 0 00.398 0l2.351-6.866a.421.421 0 01.398-.284h2.445c.18 0 .34.114.398.284l2.35 6.866a.21.21 0 00.4 0l2.35-6.866a.421.421 0 01.398-.284h2.156a.42.42 0 01.398.556l-3.881 11.338a.421.421 0 01-.399.285H91.45a.421.421 0 01-.398-.285l-2.35-6.865a.21.21 0 00-.399 0l-2.35 6.865a.421.421 0 01-.398.285zm22.932-.718a6.497 6.497 0 110-10.743v-.312c0-.225.182-.406.406-.406h2.233c.225 0 .406.181.406.406V30.21a.406.406 0 01-.406.406h-2.233a.406.406 0 01-.406-.406v-.312zm-3.452-1.92a3.451 3.451 0 10.001-6.903 3.451 3.451 0 000 6.902zm18.07-8.823v-.312c0-.225.183-.406.407-.406h2.233c.225 0 .407.181.407.406V30.21h-.001a6.598 6.598 0 01-9.25 5.941 7.248 7.248 0 01-.836-.458.609.609 0 01-.256-.717l.72-2.09a.406.406 0 01.658-.166c.268.246.5.42.696.525a3.553 3.553 0 005.221-3.035h.002v-.312a6.497 6.497 0 110-10.743zm-3.45 8.822a3.451 3.451 0 100-6.902 3.451 3.451 0 000 6.902zm14.415 3.045a6.497 6.497 0 110-12.991 6.497 6.497 0 110 12.991zm0-3.045a3.451 3.451 0 10.001-6.902 3.451 3.451 0 000 6.902zm19.899-4.06v6.293a.406.406 0 01-.407.406h-2.436a.406.406 0 01-.406-.406v-6.09h-.007a2.842 2.842 0 10-5.67 0h-.008v6.09a.406.406 0 01-.406.406h-2.234a.406.406 0 01-.406-.406V18.844c0-.225.182-.406.406-.406h2.234c.224 0 .406.181.406.406v.035a5.887 5.887 0 018.934 5.04z"/></g></svg>
